<svg width="24" height="24" viewBox="0 0 24 24" fill="none" xmlns="http://www.w3.org/2000/svg">
<g clip-path="url(#clip0)">
<path d="M5.70005 24.0001C5.20325 24.0001 4.80005 23.5969 4.80005 23.1001V0.899999C4.80005 0.403198 5.20325 -7.15256e-07 5.70005 -7.15256e-07C6.19685 -7.15256e-07 6.60005 0.403198 6.60005 0.899999V23.1001C6.60005 23.5969 6.19685 24.0001 5.70005 24.0001Z" fill="#333333"/>
<path d="M14.2559 12.3001H5.9999C5.5031 12.3001 5.0999 11.8969 5.0999 11.4001C5.0999 10.9033 5.5031 10.5001 5.9999 10.5001H14.2559C16.6511 10.5001 18.5999 8.5511 18.5999 6.15608C18.5999 3.74876 16.6511 1.8 14.2559 1.8H3.2999C2.8031 1.8 2.3999 1.3968 2.3999 0.9C2.3999 0.403198 2.8031 -7.15256e-07 3.2999 -7.15256e-07H14.2559C17.6437 -7.15256e-07 20.3999 2.75647 20.3999 6.144C20.3999 9.54361 17.6437 12.3001 14.2559 12.3001Z" fill="#333333"/>
<path d="M14.856 24.0001H3.2999C2.8031 24.0001 2.3999 23.5969 2.3999 23.1001C2.3999 22.6033 2.8031 22.2001 3.2999 22.2001H14.856C17.5823 22.2001 19.8 19.9813 19.8 17.256C19.8 14.5189 17.5823 12.3001 14.856 12.3001H5.9999C5.5031 12.3001 5.0999 11.8969 5.0999 11.4001C5.0999 10.9033 5.5031 10.5001 5.9999 10.5001H14.856C18.5749 10.5001 21.6 13.5253 21.6 17.2439C21.6 20.9749 18.5749 24.0001 14.856 24.0001Z" fill="#333333"/>
</g>
<defs>
<clipPath id="clip0">
<rect width="24" height="24" fill="white"/>
</clipPath>
</defs>
</svg>
