<svg width="24" height="24" viewBox="0 0 24 24" fill="none" xmlns="http://www.w3.org/2000/svg">
<path d="M18.5454 0H14.1787C14.1768 0 14.1749 0 14.173 0H9.81817C9.21571 0 8.72727 0.488432 8.72727 1.0909C8.72727 1.69337 9.21571 2.1818 9.81817 2.1818H12.8511L8.92386 21.818H5.45458C4.85211 21.818 4.36368 22.3064 4.36368 22.9089C4.36368 23.5114 4.85211 23.9998 5.45458 23.9998H9.81497C9.81643 23.9998 9.81788 24 9.81927 24C9.82094 24 9.82254 23.9998 9.82407 23.9998H14.1817C14.7842 23.9998 15.2726 23.5114 15.2726 22.9089C15.2726 22.3064 14.7842 21.818 14.1817 21.818H11.1488L15.076 2.1818H18.5453C19.1478 2.1818 19.6362 1.69337 19.6362 1.0909C19.6362 0.488432 19.1479 0 18.5454 0Z" fill="#333333"/>
</svg>
