<svg width="24" height="24" viewBox="0 0 24 24" fill="none" xmlns="http://www.w3.org/2000/svg">
<g clip-path="url(#clip0)">
<path d="M21.6188 -7.15256e-07H16.8188C16.1564 -7.15256e-07 15.6187 0.536351 15.6187 1.19993C15.6187 1.8635 16.1564 2.40007 16.8188 2.40007H18.0188V11.9999C18.0188 15.3083 15.3271 18 12.0187 18C8.71027 18 6.01883 15.3083 6.01883 11.9999V2.40007H7.21876C7.88124 2.40007 8.41869 1.8635 8.41869 1.19993C8.41869 0.536351 7.88124 -7.15256e-07 7.21876 -7.15256e-07H2.41884C1.75636 -7.15256e-07 1.21869 0.536351 1.21869 1.19993C1.21869 1.8635 1.75636 2.40007 2.41884 2.40007H3.61876V11.9999C3.61876 16.6309 7.38685 20.4001 12.0187 20.4001C16.6507 20.4001 20.4188 16.6309 20.4188 11.9999V2.40007H21.6188C22.2812 2.40007 22.8187 1.8635 22.8187 1.19993C22.8187 0.536351 22.2812 -7.15256e-07 21.6188 -7.15256e-07V-7.15256e-07Z" fill="#333333"/>
<path d="M20.4188 21.6H3.61875C2.95627 21.6 2.41882 22.1364 2.41882 22.7999C2.41882 23.4635 2.95627 24.0001 3.61875 24.0001H20.4188C21.0811 24.0001 21.6187 23.4635 21.6187 22.7999C21.6187 22.1364 21.0811 21.6 20.4188 21.6Z" fill="#333333"/>
</g>
<defs>
<clipPath id="clip0">
<rect width="24" height="24" fill="white"/>
</clipPath>
</defs>
</svg>
