<svg width="24" height="24" viewBox="0 0 24 24" fill="none" xmlns="http://www.w3.org/2000/svg">
<g clip-path="url(#clip0)">
<path d="M14.4919 2.04751C13.9568 1.90964 13.4128 2.23849 13.2799 2.77552L8.78001 20.7751C8.64507 21.3102 8.97099 21.8531 9.50802 21.9871C9.58895 22.007 9.67098 22.0171 9.751 22.0171C10.199 22.0171 10.6059 21.7141 10.72 21.2591L15.2199 3.25946C15.3539 2.72462 15.0278 2.18154 14.4919 2.04751Z" fill="#333333"/>
<path d="M7.70711 5.31056C7.31601 4.91945 6.68413 4.91945 6.2932 5.31056L0.293329 11.3104C-0.0977763 11.7014 -0.0977763 12.3334 0.293329 12.7243L6.2932 18.7242C6.48802 18.9192 6.74418 19.0172 7.00016 19.0172C7.25614 19.0172 7.51211 18.9192 7.70711 18.7242C8.09804 18.3333 8.09804 17.7012 7.70711 17.3103L2.4142 12.0174L7.70711 6.72447C8.09804 6.33355 8.09804 5.70148 7.70711 5.31056Z" fill="#333333"/>
<path d="M23.7067 11.3104L17.7068 5.31056C17.3159 4.91945 16.6838 4.91945 16.2929 5.31056C15.9018 5.70148 15.9018 6.33355 16.2929 6.72447L21.5858 12.0174L16.2929 17.3103C15.9018 17.7012 15.9018 18.3333 16.2929 18.7242C16.4879 18.9192 16.7439 19.0172 16.9999 19.0172C17.2558 19.0172 17.5118 18.9192 17.7068 18.7242L23.7067 12.7243C24.0978 12.3334 24.0978 11.7014 23.7067 11.3104Z" fill="#333333"/>
</g>
<defs>
<clipPath id="clip0">
<rect width="24" height="24" fill="white"/>
</clipPath>
</defs>
</svg>
