<svg width="24" height="24" viewBox="0 0 24 24" fill="none" xmlns="http://www.w3.org/2000/svg">
<g clip-path="url(#clip0)">
<path d="M20.3999 10.8H12C9.35274 10.8 7.20008 8.91606 7.20008 6.59993C7.20008 4.28401 9.35274 2.40007 12 2.40007C14.6473 2.40007 16.7999 4.28401 16.7999 6.59993C16.7999 7.2635 17.3376 7.80007 18.0001 7.80007C18.6623 7.80007 19.2 7.2635 19.2 6.59993C19.2 2.96169 15.9709 -7.15256e-07 12 -7.15256e-07C8.02911 -7.15256e-07 4.80001 2.96169 4.80001 6.59993C4.80001 8.1936 5.42051 9.65764 6.44993 10.8H3.60008C2.9376 10.8 2.39993 11.3364 2.39993 11.9999C2.39993 12.6635 2.9376 13.2001 3.60008 13.2001H12C14.6473 13.2001 16.7999 15.084 16.7999 17.3999C16.7999 19.7161 14.6473 21.6 12 21.6C9.35274 21.6 7.20008 19.7161 7.20008 17.3999C7.20008 16.7364 6.66241 16.2 5.99993 16.2C5.33768 16.2 4.80001 16.7364 4.80001 17.3999C4.80001 21.0384 8.02911 24.0001 12 24.0001C15.9709 24.0001 19.2 21.0384 19.2 17.3999C19.2 15.8065 18.5795 14.3424 17.5501 13.2001H20.3999C21.0624 13.2001 21.6001 12.6635 21.6001 11.9999C21.6001 11.3364 21.0624 10.8 20.3999 10.8Z" fill="#333333"/>
</g>
<defs>
<clipPath id="clip0">
<rect width="24" height="24" fill="white"/>
</clipPath>
</defs>
</svg>
